<svg width="40.000000" height="40.000000" viewBox="0 0 40 40" fill="none" xmlns="http://www.w3.org/2000/svg" xmlns:xlink="http://www.w3.org/1999/xlink">
	<desc>
			Created with Pixso.
	</desc>
	<defs>
		<clipPath id="clip21_170">
			<rect id="facebook-svgrepo-com" width="40.000000" height="40.000000" fill="white" fill-opacity="0"/>
		</clipPath>
	</defs>
	<g clip-path="url(#clip21_170)">
		<path id="path" d="M33.33 1.66C36.09 1.66 38.33 3.9 38.33 6.66L38.33 33.33C38.33 36.09 36.09 38.33 33.33 38.33L6.66 38.33C3.9 38.33 1.66 36.09 1.66 33.33L1.66 6.66C1.66 3.9 3.9 1.66 6.66 1.66L33.33 1.66ZM33.33 4.99C34.25 4.99 35 5.74 35 6.66L35 33.33C35 34.25 34.25 34.99 33.33 34.99L25 34.99L25 23.33L28.46 23.33C29.17 23.33 29.81 22.87 30.04 22.19L30.77 19.97C31.04 19.16 30.44 18.33 29.59 18.33L25 18.33L25 14.99C25 14.16 25.83 13.33 26.66 13.33L30 13.33C30.92 13.33 31.66 12.58 31.66 11.66L31.66 10.52C31.66 9.98 31.32 9.5 30.8 9.36C28.61 8.78 26.66 8.78 26.66 8.78C22.5 8.78 20 11.66 20 14.16L20 18.33L16.66 18.33C15.74 18.33 15 19.07 15 19.99L15 21.66C15 22.58 15.74 23.33 16.66 23.33L20 23.33L20 34.99L6.66 34.99C5.74 34.99 5 34.25 5 33.33L5 6.66C5 5.74 5.74 4.99 6.66 4.99L33.33 4.99Z" fill="#A3A3A3" fill-opacity="1.000000" fill-rule="evenodd"/>
	</g>
</svg>
