<svg width="88.000000" height="88.000000" viewBox="0 0 88 88" fill="none" xmlns="http://www.w3.org/2000/svg" xmlns:xlink="http://www.w3.org/1999/xlink">
	<desc>
			Created with Pixso.
	</desc>
	<defs>
		<filter id="filter_5_36_dd" x="0.000000" y="0.000000" width="88.000000" height="88.000000" filterUnits="userSpaceOnUse" color-interpolation-filters="sRGB">
			<feFlood flood-opacity="0" result="BackgroundImageFix"/>
			<feColorMatrix in="SourceAlpha" type="matrix" values="0 0 0 0 0 0 0 0 0 0 0 0 0 0 0 0 0 0 127 0" result="hardAlpha"/>
			<feOffset dx="0" dy="4"/>
			<feGaussianBlur stdDeviation="1.33333"/>
			<feComposite in2="hardAlpha" operator="out" k2="-1" k3="1"/>
			<feColorMatrix type="matrix" values="0 0 0 0 0 0 0 0 0 0 0 0 0 0 0 0 0 0 0.25 0"/>
			<feBlend mode="normal" in2="BackgroundImageFix" result="effect_dropShadow_1"/>
			<feBlend mode="normal" in="SourceGraphic" in2="effect_dropShadow_1" result="shape"/>
		</filter>
	</defs>
	<g filter="url(#filter_5_36_dd)">
		<path id="path" d="M21.86 54.63L18 54.63C11.56 54.63 6.34 49.41 6.34 42.97L6.34 39.96L33.52 39.96L33.52 42.97C33.52 49.41 28.3 54.63 21.86 54.63Z" fill="#F4B2B0" fill-opacity="1.000000" fill-rule="nonzero"/>
		<path id="path" d="M69.99 54.63L66.13 54.63C59.69 54.63 54.47 49.41 54.47 42.97L54.47 39.96L81.65 39.96L81.65 42.97C81.65 49.41 76.43 54.63 69.99 54.63Z" fill="#F4B2B0" fill-opacity="1.000000" fill-rule="nonzero"/>
		<path id="path" d="M83.92 39.79C83.92 39.76 83.92 39.74 83.91 39.71C83.91 39.66 83.9 39.62 83.89 39.57C83.89 39.54 83.88 39.51 83.88 39.48C83.87 39.45 83.86 39.41 83.85 39.37C83.84 39.34 83.83 39.3 83.82 39.26C83.81 39.23 83.8 39.21 83.79 39.18C83.77 39.13 83.75 39.09 83.74 39.05C83.73 39.03 83.71 39 83.7 38.98C83.68 38.93 83.66 38.89 83.63 38.85C83.63 38.84 83.63 38.83 83.62 38.82L76.83 27.06C76.2 25.97 74.81 25.59 73.72 26.22C72.63 26.85 72.26 28.24 72.89 29.33L77.72 37.69L58.41 37.69L69.38 18.7L81.72 18.7C82.98 18.7 84 17.68 84 16.42C84 15.17 82.98 14.15 81.72 14.15L52.56 14.15C51.75 11.08 49.33 8.67 46.27 7.85L46.27 3.28C46.27 2.02 45.25 1 43.99 1C42.74 1 41.72 2.02 41.72 3.28L41.72 9.83C41.72 11.09 42.74 12.1 43.99 12.1C46.37 12.11 48.31 14.04 48.31 16.42C48.31 18.8 46.38 20.74 44 20.74C41.62 20.74 39.67 18.8 39.67 16.42C39.67 15.17 38.66 14.15 37.4 14.15L6.27 14.15C5.01 14.15 4 15.17 4 16.42C4 17.68 5.01 18.7 6.27 18.7L15.99 18.7L4.37 38.82C4.36 38.83 4.36 38.84 4.36 38.85C4.33 38.89 4.31 38.93 4.29 38.98C4.28 39 4.26 39.03 4.25 39.05C4.24 39.09 4.22 39.13 4.2 39.18C4.19 39.21 4.18 39.23 4.17 39.26C4.16 39.3 4.15 39.34 4.14 39.37C4.13 39.41 4.12 39.45 4.11 39.48C4.11 39.51 4.1 39.54 4.1 39.57C4.09 39.62 4.08 39.66 4.08 39.71C4.07 39.74 4.07 39.76 4.07 39.79C4.07 39.84 4.06 39.89 4.06 39.94C4.06 39.95 4.06 39.95 4.06 39.96L4.06 42.97C4.06 50.66 10.31 56.91 18 56.91L21.86 56.91C29.54 56.91 35.79 50.66 35.79 42.97L35.79 39.96C35.79 39.95 35.79 39.95 35.79 39.94C35.79 39.89 35.79 39.84 35.78 39.79C35.78 39.76 35.78 39.74 35.78 39.71C35.77 39.66 35.76 39.62 35.76 39.57C35.75 39.54 35.75 39.51 35.74 39.48C35.73 39.45 35.72 39.41 35.71 39.37C35.7 39.34 35.69 39.3 35.68 39.26C35.67 39.23 35.66 39.21 35.65 39.18C35.63 39.13 35.62 39.09 35.6 39.05C35.59 39.03 35.58 39 35.56 38.98C35.54 38.93 35.52 38.89 35.5 38.85C35.49 38.84 35.49 38.83 35.49 38.82L28.41 26.57C27.78 25.48 26.39 25.11 25.3 25.74C24.22 26.36 23.84 27.75 24.47 28.84L29.58 37.69L10.27 37.69L21.24 18.7L35.43 18.7C36.24 21.76 38.66 24.18 41.72 24.99L41.72 63.3L21.83 63.3C20.57 63.3 19.55 64.32 19.55 65.57L19.55 76.71C19.55 77.97 20.57 78.99 21.83 78.99L66.16 78.99C67.42 78.99 68.44 77.97 68.44 76.71L68.44 65.57C68.44 64.32 67.42 63.3 66.16 63.3L54.98 63.3C53.73 63.3 52.71 64.32 52.71 65.57C52.71 66.83 53.73 67.85 54.98 67.85L63.89 67.85L63.89 74.44L24.1 74.44L24.1 67.85L44 67.85C45.25 67.85 46.27 66.83 46.27 65.57L46.27 24.99C49.33 24.18 51.75 21.76 52.57 18.7L64.13 18.7L52.5 38.82C52.5 38.83 52.5 38.84 52.49 38.85C52.47 38.89 52.45 38.93 52.43 38.98C52.41 39 52.4 39.03 52.39 39.05C52.37 39.09 52.36 39.13 52.34 39.18C52.33 39.21 52.32 39.23 52.31 39.26C52.3 39.3 52.29 39.34 52.28 39.37C52.27 39.41 52.26 39.45 52.25 39.48C52.24 39.51 52.24 39.54 52.24 39.57C52.23 39.62 52.22 39.66 52.21 39.71C52.21 39.74 52.21 39.76 52.21 39.79C52.21 39.84 52.2 39.89 52.2 39.94C52.2 39.95 52.2 39.95 52.2 39.96L52.2 42.97C52.2 50.66 58.45 56.91 66.13 56.91L69.99 56.91C77.68 56.91 83.93 50.66 83.93 42.97L83.93 39.96C83.93 39.95 83.93 39.95 83.93 39.94C83.93 39.89 83.92 39.84 83.92 39.79ZM31.24 42.97C31.24 48.15 27.03 52.36 21.86 52.36L18 52.36C12.82 52.36 8.61 48.15 8.61 42.97L8.61 42.24L31.24 42.24L31.24 42.97ZM79.38 42.97C79.38 48.15 75.17 52.36 69.99 52.36L66.13 52.36C60.96 52.36 56.75 48.15 56.75 42.97L56.75 42.24L79.38 42.24L79.38 42.97Z" fill="#B3404A" fill-opacity="1.000000" fill-rule="nonzero"/>
	</g>
</svg>
