<svg width="40.000000" height="40.000000" viewBox="0 0 40 40" fill="none" xmlns="http://www.w3.org/2000/svg" xmlns:xlink="http://www.w3.org/1999/xlink">
	<desc>
			Created with Pixso.
	</desc>
	<defs>
		<clipPath id="clip21_166">
			<rect id="instagram-svgrepo-com" width="40.000000" height="40.000000" fill="white" fill-opacity="0"/>
		</clipPath>
	</defs>
	<g clip-path="url(#clip21_166)">
		<path id="path" d="M20 30C25.52 30 30 25.52 30 20C30 14.47 25.52 10 20 10C14.47 10 10 14.47 10 20C10 25.52 14.47 30 20 30ZM20 26.66C23.68 26.66 26.66 23.68 26.66 20C26.66 16.31 23.68 13.33 20 13.33C16.31 13.33 13.33 16.31 13.33 20C13.33 23.68 16.31 26.66 20 26.66Z" fill="#A3A3A3" fill-opacity="1.000000" fill-rule="evenodd"/>
		<path id="path" d="M30 8.33C29.07 8.33 28.33 9.07 28.33 10C28.33 10.92 29.07 11.66 30 11.66C30.92 11.66 31.66 10.92 31.66 10C31.66 9.07 30.92 8.33 30 8.33Z" fill="#A3A3A3" fill-opacity="1.000000" fill-rule="nonzero"/>
		<path id="path" d="M2.75 7.12C1.66 9.26 1.66 12.06 1.66 17.66L1.66 22.33C1.66 27.93 1.66 30.73 2.75 32.87C3.71 34.75 5.24 36.28 7.12 37.24C9.26 38.33 12.06 38.33 17.66 38.33L22.33 38.33C27.93 38.33 30.73 38.33 32.87 37.24C34.75 36.28 36.28 34.75 37.24 32.87C38.33 30.73 38.33 27.93 38.33 22.33L38.33 17.66C38.33 12.06 38.33 9.26 37.24 7.12C36.28 5.24 34.75 3.71 32.87 2.75C30.73 1.66 27.93 1.66 22.33 1.66L17.66 1.66C12.06 1.66 9.26 1.66 7.12 2.75C5.24 3.71 3.71 5.24 2.75 7.12ZM22.33 4.99L17.66 4.99C14.81 4.99 12.87 5 11.37 5.12C9.9 5.24 9.16 5.46 8.64 5.72C7.38 6.36 6.36 7.38 5.72 8.63C5.46 9.16 5.24 9.9 5.12 11.36C5 12.87 5 14.81 5 17.66L5 22.33C5 25.18 5 27.12 5.12 28.62C5.24 30.09 5.46 30.83 5.72 31.35C6.36 32.61 7.38 33.63 8.64 34.27C9.16 34.53 9.9 34.75 11.37 34.87C12.87 34.99 14.81 34.99 17.66 34.99L22.33 34.99C25.18 34.99 27.12 34.99 28.62 34.87C30.09 34.75 30.83 34.53 31.36 34.27C32.61 33.63 33.63 32.61 34.27 31.35C34.53 30.83 34.75 30.09 34.87 28.62C34.99 27.12 35 25.18 35 22.33L35 17.66C35 14.81 34.99 12.87 34.87 11.36C34.75 9.9 34.53 9.16 34.27 8.63C33.63 7.38 32.61 6.36 31.36 5.72C30.83 5.46 30.09 5.24 28.62 5.12C27.12 5 25.18 4.99 22.33 4.99Z" fill="#A3A3A3" fill-opacity="1.000000" fill-rule="evenodd"/>
	</g>
</svg>
