<svg width="40.000000" height="40.000000" viewBox="0 0 40 40" fill="none" xmlns="http://www.w3.org/2000/svg" xmlns:xlink="http://www.w3.org/1999/xlink">
	<desc>
			Created with Pixso.
	</desc>
	<defs>
		<clipPath id="clip21_160">
			<rect id="telegram-svgrepo-com" width="40.000000" height="40.000000" fill="white" fill-opacity="0"/>
		</clipPath>
	</defs>
	<g clip-path="url(#clip21_160)">
		<path id="path" d="M38.51 7.49C39.04 4.9 36.51 2.76 34.05 3.71L3.9 15.35C1.15 16.42 1.03 20.26 3.7 21.49L10.27 24.52L13.39 35.45C13.55 36.02 14.01 36.46 14.58 36.61C15.15 36.76 15.76 36.59 16.17 36.17L20.98 31.36L27.72 36.42C29.68 37.88 32.5 36.82 32.99 34.42L38.51 7.49ZM5.1 18.46L35.25 6.82L29.72 33.75L21.83 27.83C21.16 27.33 20.24 27.4 19.65 27.98L17.59 30.04L18.21 26.64L30.34 14.51C30.93 13.92 30.99 12.98 30.49 12.32C29.98 11.65 29.06 11.47 28.33 11.88L11.58 21.46L5.1 18.46ZM13.62 24.13L14.63 27.66L15.02 25.53C15.08 25.2 15.24 24.89 15.48 24.65L19.18 20.95L13.62 24.13Z" fill="#A3A3A3" fill-opacity="1.000000" fill-rule="evenodd"/>
	</g>
</svg>
