<svg width="40.000000" height="40.800049" viewBox="0 0 40 40.8" fill="none" xmlns="http://www.w3.org/2000/svg" xmlns:xlink="http://www.w3.org/1999/xlink">
	<desc>
			Created with Pixso.
	</desc>
	<defs>
		<clipPath id="clip21_164">
			<rect id="twitter-svgrepo-com" width="40.000000" height="40.799999" fill="white" fill-opacity="0"/>
		</clipPath>
	</defs>
	<g clip-path="url(#clip21_164)">
		<path id="path" d="M32.97 6.66C33.55 6.52 33.95 6.38 34.28 6.23C34.75 6.03 35.13 5.79 35.74 5.38C36.26 5.03 36.91 5 37.45 5.3C37.99 5.59 38.33 6.17 38.33 6.79C38.33 8.63 38.1 10.14 37.58 11.46C37.15 12.58 36.53 13.48 35.8 14.31C35.49 20.03 33.86 24.52 31.38 27.92C28.81 31.44 25.39 33.7 21.79 34.97C18.19 36.23 14.39 36.51 10.99 36.08C7.61 35.66 4.48 34.51 2.31 32.79C1.71 32.31 1.5 31.49 1.79 30.78C2.09 30.07 2.82 29.65 3.56 29.76C5.71 30.07 7.77 29.58 9.47 28.87C9.13 28.68 8.82 28.48 8.53 28.27C6.98 27.18 5.73 25.7 5.17 24.56C4.94 24.08 4.94 23.52 5.16 23.05C5.28 22.8 5.45 22.59 5.66 22.43C3.41 20.53 2.5 17.91 2.5 16.14C2.5 15.62 2.73 15.13 3.14 14.8C3.31 14.67 3.5 14.57 3.7 14.51C3.53 14.01 3.4 13.5 3.3 13C2.86 10.82 2.9 8.35 3.38 6.38C3.54 5.71 4.09 5.21 4.76 5.11C5.44 5.02 6.1 5.35 6.44 5.95C8.23 9.12 11.55 11.06 14.63 12.21C16.08 12.75 17.42 13.1 18.43 13.31C18.64 11.23 19.21 9.52 20.08 8.16C21.23 6.37 22.84 5.31 24.56 4.83C27.53 4.02 30.83 4.95 32.97 6.66ZM17.91 16.67C16.77 16.44 15.2 16.04 13.49 15.4C11.22 14.56 8.6 13.25 6.4 11.21C6.44 11.58 6.49 11.95 6.56 12.32C6.93 14.14 7.62 15.16 8.24 15.47C9 15.86 9.35 16.77 9.06 17.58C8.66 18.69 7.61 18.78 6.65 18.53C7.42 19.71 8.8 20.88 11.1 21.27C11.9 21.4 12.48 22.1 12.49 22.92C12.51 23.74 11.94 24.45 11.16 24.61L9.7 24.91C9.93 25.1 10.17 25.3 10.42 25.48C11.58 26.3 12.75 26.65 13.76 26.4C14.51 26.2 15.3 26.57 15.65 27.28C16 27.98 15.83 28.84 15.23 29.35C14.16 30.26 12.9 30.99 11.65 31.6C11.06 31.88 10.4 32.17 9.68 32.41C10.23 32.53 10.8 32.63 11.4 32.71C14.35 33.08 17.63 32.83 20.7 31.75C23.76 30.68 26.59 28.79 28.71 25.89C30.82 22.99 32.3 18.98 32.5 13.53C32.51 13.1 32.69 12.7 32.98 12.39C33.73 11.63 34.35 10.75 34.66 9.71C34.12 9.88 33.52 10.03 32.81 10.16C32.27 10.27 31.71 10.1 31.32 9.7C30.04 8.4 27.52 7.54 25.43 8.12C24.44 8.39 23.55 8.97 22.87 10.02C22.19 11.09 21.66 12.76 21.66 15.29C21.66 15.78 21.46 16.23 21.11 16.56C20.28 17.32 18.89 16.87 17.91 16.67Z" fill="#A3A3A3" fill-opacity="1.000000" fill-rule="evenodd"/>
	</g>
</svg>
